<mxfile host="app.diagrams.net" modified="2024-08-22T18:17:56.755Z" agent="Mozilla/5.0 (Windows NT 10.0; Win64; x64) AppleWebKit/537.36 (KHTML, like Gecko) Chrome/127.0.0.0 Safari/537.36" etag="sJxkAHtMjlcfCumxH7Wo" version="24.7.1" type="device" pages="2">
  <diagram name="Page-1" id="U57qmIdAFQI3HxlwIkW2">
    <mxGraphModel dx="1290" dy="557" grid="1" gridSize="10" guides="1" tooltips="1" connect="1" arrows="1" fold="1" page="1" pageScale="1" pageWidth="850" pageHeight="1100" math="0" shadow="0">
      <root>
        <mxCell id="0" />
        <mxCell id="1" parent="0" />
        <mxCell id="zkFHrdFbMeHq6-utrkrm-1" value="MarksController" style="html=1;whiteSpace=wrap;" vertex="1" parent="1">
          <mxGeometry x="50" y="40" width="110" height="100" as="geometry" />
        </mxCell>
        <mxCell id="zkFHrdFbMeHq6-utrkrm-2" value="SubjectsController" style="html=1;whiteSpace=wrap;" vertex="1" parent="1">
          <mxGeometry x="50" y="170" width="110" height="100" as="geometry" />
        </mxCell>
        <mxCell id="zkFHrdFbMeHq6-utrkrm-3" value="StudentsController" style="html=1;whiteSpace=wrap;" vertex="1" parent="1">
          <mxGeometry x="50" y="300" width="110" height="100" as="geometry" />
        </mxCell>
        <mxCell id="zkFHrdFbMeHq6-utrkrm-4" value="AddressesController" style="html=1;whiteSpace=wrap;" vertex="1" parent="1">
          <mxGeometry x="50" y="430" width="110" height="100" as="geometry" />
        </mxCell>
        <mxCell id="zkFHrdFbMeHq6-utrkrm-5" value="MarksServices" style="html=1;whiteSpace=wrap;" vertex="1" parent="1">
          <mxGeometry x="290" y="60" width="110" height="60" as="geometry" />
        </mxCell>
        <mxCell id="zkFHrdFbMeHq6-utrkrm-6" value="SubjectsServices" style="html=1;whiteSpace=wrap;" vertex="1" parent="1">
          <mxGeometry x="290" y="180" width="110" height="60" as="geometry" />
        </mxCell>
        <mxCell id="zkFHrdFbMeHq6-utrkrm-7" value="StudentsServices" style="html=1;whiteSpace=wrap;" vertex="1" parent="1">
          <mxGeometry x="290" y="300" width="110" height="60" as="geometry" />
        </mxCell>
        <mxCell id="zkFHrdFbMeHq6-utrkrm-8" value="AddressesServices" style="html=1;whiteSpace=wrap;" vertex="1" parent="1">
          <mxGeometry x="290" y="430" width="110" height="60" as="geometry" />
        </mxCell>
        <mxCell id="zkFHrdFbMeHq6-utrkrm-9" value="DbContext" style="html=1;whiteSpace=wrap;" vertex="1" parent="1">
          <mxGeometry x="500" y="310" width="110" height="50" as="geometry" />
        </mxCell>
        <mxCell id="zkFHrdFbMeHq6-utrkrm-10" value="" style="shape=cylinder3;whiteSpace=wrap;html=1;boundedLbl=1;backgroundOutline=1;size=15;" vertex="1" parent="1">
          <mxGeometry x="670" y="180" width="60" height="80" as="geometry" />
        </mxCell>
        <mxCell id="zkFHrdFbMeHq6-utrkrm-12" value="DB" style="text;strokeColor=none;fillColor=none;align=left;verticalAlign=top;spacingLeft=4;spacingRight=4;overflow=hidden;rotatable=0;points=[[0,0.5],[1,0.5]];portConstraint=eastwest;whiteSpace=wrap;html=1;" vertex="1" parent="1">
          <mxGeometry x="690" y="214" width="100" height="26" as="geometry" />
        </mxCell>
        <mxCell id="zkFHrdFbMeHq6-utrkrm-13" value="" style="html=1;verticalAlign=bottom;endArrow=block;curved=0;rounded=0;entryX=0;entryY=0.5;entryDx=0;entryDy=0;" edge="1" parent="1" target="zkFHrdFbMeHq6-utrkrm-5">
          <mxGeometry width="80" relative="1" as="geometry">
            <mxPoint x="160" y="89.5" as="sourcePoint" />
            <mxPoint x="260" y="89.5" as="targetPoint" />
          </mxGeometry>
        </mxCell>
        <mxCell id="zkFHrdFbMeHq6-utrkrm-14" value="" style="html=1;verticalAlign=bottom;endArrow=block;curved=0;rounded=0;entryX=0.022;entryY=0.65;entryDx=0;entryDy=0;entryPerimeter=0;" edge="1" parent="1" target="zkFHrdFbMeHq6-utrkrm-8">
          <mxGeometry width="80" relative="1" as="geometry">
            <mxPoint x="160" y="470" as="sourcePoint" />
            <mxPoint x="240" y="470" as="targetPoint" />
          </mxGeometry>
        </mxCell>
        <mxCell id="zkFHrdFbMeHq6-utrkrm-16" value="" style="html=1;verticalAlign=bottom;endArrow=block;curved=0;rounded=0;entryX=0.015;entryY=0.63;entryDx=0;entryDy=0;entryPerimeter=0;" edge="1" parent="1" target="zkFHrdFbMeHq6-utrkrm-7">
          <mxGeometry width="80" relative="1" as="geometry">
            <mxPoint x="160" y="450" as="sourcePoint" />
            <mxPoint x="240" y="450" as="targetPoint" />
            <Array as="points">
              <mxPoint x="250" y="450" />
              <mxPoint x="250" y="338" />
            </Array>
          </mxGeometry>
        </mxCell>
        <mxCell id="zkFHrdFbMeHq6-utrkrm-19" value="" style="html=1;verticalAlign=bottom;endArrow=block;curved=0;rounded=0;exitX=0.982;exitY=0.146;exitDx=0;exitDy=0;entryX=0;entryY=0.25;entryDx=0;entryDy=0;exitPerimeter=0;" edge="1" parent="1" source="zkFHrdFbMeHq6-utrkrm-3" target="zkFHrdFbMeHq6-utrkrm-7">
          <mxGeometry width="80" relative="1" as="geometry">
            <mxPoint x="210" y="320" as="sourcePoint" />
            <mxPoint x="290" y="320" as="targetPoint" />
          </mxGeometry>
        </mxCell>
        <mxCell id="zkFHrdFbMeHq6-utrkrm-20" value="" style="html=1;verticalAlign=bottom;endArrow=block;curved=0;rounded=0;entryX=0;entryY=0.5;entryDx=0;entryDy=0;" edge="1" parent="1" target="zkFHrdFbMeHq6-utrkrm-6">
          <mxGeometry width="80" relative="1" as="geometry">
            <mxPoint x="160" y="210" as="sourcePoint" />
            <mxPoint x="240" y="210" as="targetPoint" />
          </mxGeometry>
        </mxCell>
        <mxCell id="zkFHrdFbMeHq6-utrkrm-21" value="" style="html=1;verticalAlign=bottom;endArrow=block;curved=0;rounded=0;entryX=0.5;entryY=1;entryDx=0;entryDy=0;" edge="1" parent="1" target="zkFHrdFbMeHq6-utrkrm-9">
          <mxGeometry width="80" relative="1" as="geometry">
            <mxPoint x="400" y="460" as="sourcePoint" />
            <mxPoint x="570" y="460" as="targetPoint" />
            <Array as="points">
              <mxPoint x="555" y="460" />
            </Array>
          </mxGeometry>
        </mxCell>
        <mxCell id="zkFHrdFbMeHq6-utrkrm-23" value="" style="html=1;verticalAlign=bottom;endArrow=block;curved=0;rounded=0;entryX=0;entryY=0.25;entryDx=0;entryDy=0;" edge="1" parent="1" target="zkFHrdFbMeHq6-utrkrm-9">
          <mxGeometry width="80" relative="1" as="geometry">
            <mxPoint x="400" y="323" as="sourcePoint" />
            <mxPoint x="480" y="329.5" as="targetPoint" />
          </mxGeometry>
        </mxCell>
        <mxCell id="zkFHrdFbMeHq6-utrkrm-24" value="" style="html=1;verticalAlign=bottom;endArrow=block;curved=0;rounded=0;entryX=0.25;entryY=0;entryDx=0;entryDy=0;" edge="1" parent="1" target="zkFHrdFbMeHq6-utrkrm-9">
          <mxGeometry width="80" relative="1" as="geometry">
            <mxPoint x="400" y="210" as="sourcePoint" />
            <mxPoint x="480" y="210" as="targetPoint" />
            <Array as="points">
              <mxPoint x="528" y="210" />
            </Array>
          </mxGeometry>
        </mxCell>
        <mxCell id="zkFHrdFbMeHq6-utrkrm-25" value="" style="html=1;verticalAlign=bottom;endArrow=block;curved=0;rounded=0;entryX=0.75;entryY=0;entryDx=0;entryDy=0;" edge="1" parent="1" target="zkFHrdFbMeHq6-utrkrm-9">
          <mxGeometry width="80" relative="1" as="geometry">
            <mxPoint x="400" y="90" as="sourcePoint" />
            <mxPoint x="480" y="90" as="targetPoint" />
            <Array as="points">
              <mxPoint x="583" y="90" />
            </Array>
          </mxGeometry>
        </mxCell>
        <mxCell id="zkFHrdFbMeHq6-utrkrm-26" value="" style="html=1;verticalAlign=bottom;endArrow=block;curved=0;rounded=0;entryX=0.5;entryY=1;entryDx=0;entryDy=0;entryPerimeter=0;" edge="1" parent="1" target="zkFHrdFbMeHq6-utrkrm-10">
          <mxGeometry width="80" relative="1" as="geometry">
            <mxPoint x="610" y="330" as="sourcePoint" />
            <mxPoint x="690" y="330" as="targetPoint" />
            <Array as="points">
              <mxPoint x="700" y="330" />
            </Array>
          </mxGeometry>
        </mxCell>
      </root>
    </mxGraphModel>
  </diagram>
  <diagram id="Nb4noYXNF4olwSmP0WsY" name="Page-2">
    <mxGraphModel dx="1290" dy="557" grid="1" gridSize="10" guides="1" tooltips="1" connect="1" arrows="1" fold="1" page="1" pageScale="1" pageWidth="850" pageHeight="1100" math="0" shadow="0">
      <root>
        <mxCell id="0" />
        <mxCell id="1" parent="0" />
        <mxCell id="1RkXf2J3yHX3x34KDYqJ-2" value="Address" style="swimlane;fontStyle=0;childLayout=stackLayout;horizontal=1;startSize=26;fillColor=none;horizontalStack=0;resizeParent=1;resizeParentMax=0;resizeLast=0;collapsible=1;marginBottom=0;whiteSpace=wrap;html=1;" vertex="1" parent="1">
          <mxGeometry x="110" y="80" width="140" height="156" as="geometry" />
        </mxCell>
        <mxCell id="1RkXf2J3yHX3x34KDYqJ-3" value="-Id: int" style="text;strokeColor=none;fillColor=none;align=left;verticalAlign=top;spacingLeft=4;spacingRight=4;overflow=hidden;rotatable=0;points=[[0,0.5],[1,0.5]];portConstraint=eastwest;whiteSpace=wrap;html=1;" vertex="1" parent="1RkXf2J3yHX3x34KDYqJ-2">
          <mxGeometry y="26" width="140" height="26" as="geometry" />
        </mxCell>
        <mxCell id="1RkXf2J3yHX3x34KDYqJ-4" value="-City: string" style="text;strokeColor=none;fillColor=none;align=left;verticalAlign=top;spacingLeft=4;spacingRight=4;overflow=hidden;rotatable=0;points=[[0,0.5],[1,0.5]];portConstraint=eastwest;whiteSpace=wrap;html=1;" vertex="1" parent="1RkXf2J3yHX3x34KDYqJ-2">
          <mxGeometry y="52" width="140" height="26" as="geometry" />
        </mxCell>
        <mxCell id="1RkXf2J3yHX3x34KDYqJ-18" value="-Street: string" style="text;strokeColor=none;fillColor=none;align=left;verticalAlign=top;spacingLeft=4;spacingRight=4;overflow=hidden;rotatable=0;points=[[0,0.5],[1,0.5]];portConstraint=eastwest;whiteSpace=wrap;html=1;" vertex="1" parent="1RkXf2J3yHX3x34KDYqJ-2">
          <mxGeometry y="78" width="140" height="26" as="geometry" />
        </mxCell>
        <mxCell id="1RkXf2J3yHX3x34KDYqJ-19" value="-Number: int" style="text;strokeColor=none;fillColor=none;align=left;verticalAlign=top;spacingLeft=4;spacingRight=4;overflow=hidden;rotatable=0;points=[[0,0.5],[1,0.5]];portConstraint=eastwest;whiteSpace=wrap;html=1;" vertex="1" parent="1RkXf2J3yHX3x34KDYqJ-2">
          <mxGeometry y="104" width="140" height="26" as="geometry" />
        </mxCell>
        <mxCell id="1RkXf2J3yHX3x34KDYqJ-5" value="Student: Student" style="text;strokeColor=none;fillColor=none;align=left;verticalAlign=top;spacingLeft=4;spacingRight=4;overflow=hidden;rotatable=0;points=[[0,0.5],[1,0.5]];portConstraint=eastwest;whiteSpace=wrap;html=1;" vertex="1" parent="1RkXf2J3yHX3x34KDYqJ-2">
          <mxGeometry y="130" width="140" height="26" as="geometry" />
        </mxCell>
        <mxCell id="1RkXf2J3yHX3x34KDYqJ-6" value="Mark" style="swimlane;fontStyle=0;childLayout=stackLayout;horizontal=1;startSize=26;fillColor=none;horizontalStack=0;resizeParent=1;resizeParentMax=0;resizeLast=0;collapsible=1;marginBottom=0;whiteSpace=wrap;html=1;" vertex="1" parent="1">
          <mxGeometry x="465" y="388" width="140" height="182" as="geometry" />
        </mxCell>
        <mxCell id="1RkXf2J3yHX3x34KDYqJ-7" value="-Id: int" style="text;strokeColor=none;fillColor=none;align=left;verticalAlign=top;spacingLeft=4;spacingRight=4;overflow=hidden;rotatable=0;points=[[0,0.5],[1,0.5]];portConstraint=eastwest;whiteSpace=wrap;html=1;" vertex="1" parent="1RkXf2J3yHX3x34KDYqJ-6">
          <mxGeometry y="26" width="140" height="26" as="geometry" />
        </mxCell>
        <mxCell id="1RkXf2J3yHX3x34KDYqJ-46" value="-Value: int" style="text;strokeColor=none;fillColor=none;align=left;verticalAlign=top;spacingLeft=4;spacingRight=4;overflow=hidden;rotatable=0;points=[[0,0.5],[1,0.5]];portConstraint=eastwest;whiteSpace=wrap;html=1;" vertex="1" parent="1RkXf2J3yHX3x34KDYqJ-6">
          <mxGeometry y="52" width="140" height="26" as="geometry" />
        </mxCell>
        <mxCell id="1RkXf2J3yHX3x34KDYqJ-8" value="-DateGiven: DateTIme" style="text;strokeColor=none;fillColor=none;align=left;verticalAlign=top;spacingLeft=4;spacingRight=4;overflow=hidden;rotatable=0;points=[[0,0.5],[1,0.5]];portConstraint=eastwest;whiteSpace=wrap;html=1;" vertex="1" parent="1RkXf2J3yHX3x34KDYqJ-6">
          <mxGeometry y="78" width="140" height="26" as="geometry" />
        </mxCell>
        <mxCell id="1RkXf2J3yHX3x34KDYqJ-45" value="Student: Student" style="text;strokeColor=none;fillColor=none;align=left;verticalAlign=top;spacingLeft=4;spacingRight=4;overflow=hidden;rotatable=0;points=[[0,0.5],[1,0.5]];portConstraint=eastwest;whiteSpace=wrap;html=1;" vertex="1" parent="1RkXf2J3yHX3x34KDYqJ-6">
          <mxGeometry y="104" width="140" height="26" as="geometry" />
        </mxCell>
        <mxCell id="1RkXf2J3yHX3x34KDYqJ-47" value="-SubjectId: int" style="text;strokeColor=none;fillColor=none;align=left;verticalAlign=top;spacingLeft=4;spacingRight=4;overflow=hidden;rotatable=0;points=[[0,0.5],[1,0.5]];portConstraint=eastwest;whiteSpace=wrap;html=1;" vertex="1" parent="1RkXf2J3yHX3x34KDYqJ-6">
          <mxGeometry y="130" width="140" height="26" as="geometry" />
        </mxCell>
        <mxCell id="1RkXf2J3yHX3x34KDYqJ-9" value="Subject: Subject" style="text;strokeColor=none;fillColor=none;align=left;verticalAlign=top;spacingLeft=4;spacingRight=4;overflow=hidden;rotatable=0;points=[[0,0.5],[1,0.5]];portConstraint=eastwest;whiteSpace=wrap;html=1;" vertex="1" parent="1RkXf2J3yHX3x34KDYqJ-6">
          <mxGeometry y="156" width="140" height="26" as="geometry" />
        </mxCell>
        <mxCell id="1RkXf2J3yHX3x34KDYqJ-10" value="Subject" style="swimlane;fontStyle=0;childLayout=stackLayout;horizontal=1;startSize=26;fillColor=none;horizontalStack=0;resizeParent=1;resizeParentMax=0;resizeLast=0;collapsible=1;marginBottom=0;whiteSpace=wrap;html=1;" vertex="1" parent="1">
          <mxGeometry x="120" y="380" width="140" height="104" as="geometry" />
        </mxCell>
        <mxCell id="1RkXf2J3yHX3x34KDYqJ-11" value="-Id: int" style="text;strokeColor=none;fillColor=none;align=left;verticalAlign=top;spacingLeft=4;spacingRight=4;overflow=hidden;rotatable=0;points=[[0,0.5],[1,0.5]];portConstraint=eastwest;whiteSpace=wrap;html=1;" vertex="1" parent="1RkXf2J3yHX3x34KDYqJ-10">
          <mxGeometry y="26" width="140" height="26" as="geometry" />
        </mxCell>
        <mxCell id="1RkXf2J3yHX3x34KDYqJ-12" value="-Name: string" style="text;strokeColor=none;fillColor=none;align=left;verticalAlign=top;spacingLeft=4;spacingRight=4;overflow=hidden;rotatable=0;points=[[0,0.5],[1,0.5]];portConstraint=eastwest;whiteSpace=wrap;html=1;" vertex="1" parent="1RkXf2J3yHX3x34KDYqJ-10">
          <mxGeometry y="52" width="140" height="26" as="geometry" />
        </mxCell>
        <mxCell id="1RkXf2J3yHX3x34KDYqJ-13" value="Marks: List&amp;lt;Mark&amp;gt;" style="text;strokeColor=none;fillColor=none;align=left;verticalAlign=top;spacingLeft=4;spacingRight=4;overflow=hidden;rotatable=0;points=[[0,0.5],[1,0.5]];portConstraint=eastwest;whiteSpace=wrap;html=1;" vertex="1" parent="1RkXf2J3yHX3x34KDYqJ-10">
          <mxGeometry y="78" width="140" height="26" as="geometry" />
        </mxCell>
        <mxCell id="1RkXf2J3yHX3x34KDYqJ-14" value="Student" style="swimlane;fontStyle=0;childLayout=stackLayout;horizontal=1;startSize=26;fillColor=none;horizontalStack=0;resizeParent=1;resizeParentMax=0;resizeLast=0;collapsible=1;marginBottom=0;whiteSpace=wrap;html=1;" vertex="1" parent="1">
          <mxGeometry x="470" y="90" width="140" height="182" as="geometry" />
        </mxCell>
        <mxCell id="1RkXf2J3yHX3x34KDYqJ-15" value="-Id: int" style="text;strokeColor=none;fillColor=none;align=left;verticalAlign=top;spacingLeft=4;spacingRight=4;overflow=hidden;rotatable=0;points=[[0,0.5],[1,0.5]];portConstraint=eastwest;whiteSpace=wrap;html=1;" vertex="1" parent="1RkXf2J3yHX3x34KDYqJ-14">
          <mxGeometry y="26" width="140" height="26" as="geometry" />
        </mxCell>
        <mxCell id="1RkXf2J3yHX3x34KDYqJ-16" value="-Name: string" style="text;strokeColor=none;fillColor=none;align=left;verticalAlign=top;spacingLeft=4;spacingRight=4;overflow=hidden;rotatable=0;points=[[0,0.5],[1,0.5]];portConstraint=eastwest;whiteSpace=wrap;html=1;" vertex="1" parent="1RkXf2J3yHX3x34KDYqJ-14">
          <mxGeometry y="52" width="140" height="26" as="geometry" />
        </mxCell>
        <mxCell id="1RkXf2J3yHX3x34KDYqJ-26" value="-Surname: string" style="text;strokeColor=none;fillColor=none;align=left;verticalAlign=top;spacingLeft=4;spacingRight=4;overflow=hidden;rotatable=0;points=[[0,0.5],[1,0.5]];portConstraint=eastwest;whiteSpace=wrap;html=1;" vertex="1" parent="1RkXf2J3yHX3x34KDYqJ-14">
          <mxGeometry y="78" width="140" height="26" as="geometry" />
        </mxCell>
        <mxCell id="1RkXf2J3yHX3x34KDYqJ-27" value="-Age: int" style="text;strokeColor=none;fillColor=none;align=left;verticalAlign=top;spacingLeft=4;spacingRight=4;overflow=hidden;rotatable=0;points=[[0,0.5],[1,0.5]];portConstraint=eastwest;whiteSpace=wrap;html=1;" vertex="1" parent="1RkXf2J3yHX3x34KDYqJ-14">
          <mxGeometry y="104" width="140" height="26" as="geometry" />
        </mxCell>
        <mxCell id="1RkXf2J3yHX3x34KDYqJ-17" value="Address: Adreess" style="text;strokeColor=none;fillColor=none;align=left;verticalAlign=top;spacingLeft=4;spacingRight=4;overflow=hidden;rotatable=0;points=[[0,0.5],[1,0.5]];portConstraint=eastwest;whiteSpace=wrap;html=1;" vertex="1" parent="1RkXf2J3yHX3x34KDYqJ-14">
          <mxGeometry y="130" width="140" height="26" as="geometry" />
        </mxCell>
        <mxCell id="1RkXf2J3yHX3x34KDYqJ-28" value="-Marks: List&amp;lt;Mark&amp;gt;" style="text;strokeColor=none;fillColor=none;align=left;verticalAlign=top;spacingLeft=4;spacingRight=4;overflow=hidden;rotatable=0;points=[[0,0.5],[1,0.5]];portConstraint=eastwest;whiteSpace=wrap;html=1;" vertex="1" parent="1RkXf2J3yHX3x34KDYqJ-14">
          <mxGeometry y="156" width="140" height="26" as="geometry" />
        </mxCell>
        <mxCell id="1RkXf2J3yHX3x34KDYqJ-22" value="" style="endArrow=block;endFill=1;html=1;edgeStyle=orthogonalEdgeStyle;align=left;verticalAlign=top;rounded=0;entryX=0.017;entryY=0.931;entryDx=0;entryDy=0;entryPerimeter=0;exitX=1;exitY=0.5;exitDx=0;exitDy=0;" edge="1" parent="1" source="1RkXf2J3yHX3x34KDYqJ-4" target="1RkXf2J3yHX3x34KDYqJ-15">
          <mxGeometry x="-1" relative="1" as="geometry">
            <mxPoint x="260" y="140" as="sourcePoint" />
            <mxPoint x="420" y="140" as="targetPoint" />
          </mxGeometry>
        </mxCell>
        <mxCell id="1RkXf2J3yHX3x34KDYqJ-23" value="1" style="edgeLabel;resizable=0;html=1;align=left;verticalAlign=bottom;" connectable="0" vertex="1" parent="1RkXf2J3yHX3x34KDYqJ-22">
          <mxGeometry x="-1" relative="1" as="geometry" />
        </mxCell>
        <mxCell id="1RkXf2J3yHX3x34KDYqJ-24" value="1" style="edgeLabel;html=1;align=center;verticalAlign=middle;resizable=0;points=[];" vertex="1" connectable="0" parent="1RkXf2J3yHX3x34KDYqJ-22">
          <mxGeometry x="-0.9648" y="11" relative="1" as="geometry">
            <mxPoint as="offset" />
          </mxGeometry>
        </mxCell>
        <mxCell id="1RkXf2J3yHX3x34KDYqJ-25" value="*" style="text;html=1;align=center;verticalAlign=middle;resizable=0;points=[];autosize=1;strokeColor=none;fillColor=none;" vertex="1" parent="1">
          <mxGeometry x="435" y="118" width="30" height="30" as="geometry" />
        </mxCell>
        <mxCell id="1RkXf2J3yHX3x34KDYqJ-37" value="1" style="text;html=1;align=center;verticalAlign=middle;resizable=0;points=[];autosize=1;strokeColor=none;fillColor=none;" vertex="1" parent="1">
          <mxGeometry x="525" y="272" width="30" height="30" as="geometry" />
        </mxCell>
        <mxCell id="1RkXf2J3yHX3x34KDYqJ-42" value="" style="endArrow=block;endFill=1;html=1;edgeStyle=orthogonalEdgeStyle;align=left;verticalAlign=top;rounded=0;exitX=0.5;exitY=0;exitDx=0;exitDy=0;" edge="1" parent="1" source="1RkXf2J3yHX3x34KDYqJ-6">
          <mxGeometry x="-1" relative="1" as="geometry">
            <mxPoint x="529.5" y="392" as="sourcePoint" />
            <mxPoint x="529.5" y="272" as="targetPoint" />
          </mxGeometry>
        </mxCell>
        <mxCell id="1RkXf2J3yHX3x34KDYqJ-43" value="1" style="edgeLabel;resizable=0;html=1;align=left;verticalAlign=bottom;" connectable="0" vertex="1" parent="1RkXf2J3yHX3x34KDYqJ-42">
          <mxGeometry x="-1" relative="1" as="geometry" />
        </mxCell>
        <mxCell id="1RkXf2J3yHX3x34KDYqJ-44" value="*" style="edgeLabel;html=1;align=center;verticalAlign=middle;resizable=0;points=[];" vertex="1" connectable="0" parent="1RkXf2J3yHX3x34KDYqJ-42">
          <mxGeometry x="-0.844" y="-4" relative="1" as="geometry">
            <mxPoint as="offset" />
          </mxGeometry>
        </mxCell>
        <mxCell id="1RkXf2J3yHX3x34KDYqJ-48" value="" style="endArrow=block;endFill=1;html=1;edgeStyle=orthogonalEdgeStyle;align=left;verticalAlign=top;rounded=0;entryX=0.02;entryY=0.107;entryDx=0;entryDy=0;entryPerimeter=0;" edge="1" parent="1" target="1RkXf2J3yHX3x34KDYqJ-6">
          <mxGeometry x="-1" relative="1" as="geometry">
            <mxPoint x="280" y="420" as="sourcePoint" />
            <mxPoint x="440" y="420" as="targetPoint" />
            <Array as="points">
              <mxPoint x="260" y="420" />
              <mxPoint x="260" y="421" />
              <mxPoint x="373" y="421" />
              <mxPoint x="373" y="408" />
            </Array>
          </mxGeometry>
        </mxCell>
        <mxCell id="1RkXf2J3yHX3x34KDYqJ-49" value="1" style="edgeLabel;resizable=0;html=1;align=left;verticalAlign=bottom;" connectable="0" vertex="1" parent="1RkXf2J3yHX3x34KDYqJ-48">
          <mxGeometry x="-1" relative="1" as="geometry" />
        </mxCell>
        <mxCell id="1RkXf2J3yHX3x34KDYqJ-50" value="*" style="text;html=1;align=center;verticalAlign=middle;resizable=0;points=[];autosize=1;strokeColor=none;fillColor=none;" vertex="1" parent="1">
          <mxGeometry x="435" y="388" width="30" height="30" as="geometry" />
        </mxCell>
      </root>
    </mxGraphModel>
  </diagram>
</mxfile>
